<svg width="2657" height="434" viewBox="0 0 2657 434" fill="none" xmlns="http://www.w3.org/2000/svg">
<g clip-path="url(#clip0_560_217)">
<path d="M238.984 334.296C222.147 334.296 207.059 331.563 193.72 326.096C180.381 320.629 169.667 312.539 161.576 301.824C153.704 291.109 149.549 278.208 149.112 263.12H208.808C209.683 271.648 212.635 278.208 217.664 282.8C222.693 287.173 229.253 289.36 237.344 289.36C245.653 289.36 252.213 287.501 257.024 283.784C261.835 279.848 264.24 274.491 264.24 267.712C264.24 262.027 262.272 257.325 258.336 253.608C254.619 249.891 249.917 246.829 244.232 244.424C238.765 242.019 230.893 239.285 220.616 236.224C205.747 231.632 193.611 227.04 184.208 222.448C174.805 217.856 166.715 211.077 159.936 202.112C153.157 193.147 149.768 181.448 149.768 167.016C149.768 145.587 157.531 128.859 173.056 116.832C188.581 104.587 208.808 98.464 233.736 98.464C259.101 98.464 279.547 104.587 295.072 116.832C310.597 128.859 318.907 145.696 320 167.344H259.32C258.883 159.909 256.149 154.115 251.12 149.96C246.091 145.587 239.64 143.4 231.768 143.4C224.989 143.4 219.523 145.259 215.368 148.976C211.213 152.475 209.136 157.613 209.136 164.392C209.136 171.827 212.635 177.621 219.632 181.776C226.629 185.931 237.563 190.413 252.432 195.224C267.301 200.253 279.328 205.064 288.512 209.656C297.915 214.248 306.005 220.917 312.784 229.664C319.563 238.411 322.952 249.672 322.952 263.448C322.952 276.568 319.563 288.485 312.784 299.2C306.224 309.915 296.603 318.443 283.92 324.784C271.237 331.125 256.259 334.296 238.984 334.296ZM500.805 291.328H414.869L401.093 332H342.381L425.693 101.744H490.637L573.949 332H514.581L500.805 291.328ZM486.373 248.032L457.837 163.736L429.629 248.032H486.373ZM764.945 101.744V146.68H703.937V332H647.849V146.68H586.841V101.744H764.945ZM990.55 101.744L910.846 255.904V332H854.758V255.904L775.054 101.744H838.686L883.294 198.176L927.574 101.744H990.55ZM1130.57 332L1082.68 245.08H1069.24V332H1013.15V101.744H1107.28C1125.43 101.744 1140.85 104.915 1153.53 111.256C1166.43 117.597 1176.06 126.344 1182.4 137.496C1188.74 148.429 1191.91 160.675 1191.91 174.232C1191.91 189.539 1187.54 203.205 1178.79 215.232C1170.26 227.259 1157.58 235.787 1140.74 240.816L1193.88 332H1130.57ZM1069.24 205.392H1104C1114.28 205.392 1121.94 202.877 1126.96 197.848C1132.21 192.819 1134.84 185.712 1134.84 176.528C1134.84 167.781 1132.21 160.893 1126.96 155.864C1121.94 150.835 1114.28 148.32 1104 148.32H1069.24V205.392ZM1368.16 193.584V240.16H1223.84V193.584H1368.16ZM1551.21 291.328H1465.27L1444.28 332H1385.57L1509.55 101.744H1574.49L1617.13 332H1557.77L1551.21 291.328ZM1544.65 248.688L1531.2 163.408L1487.25 248.688H1544.65ZM1769.43 101.744C1790.64 101.744 1808.9 105.571 1824.2 113.224C1839.73 120.659 1851.54 131.264 1859.63 145.04C1867.94 158.597 1872.09 174.56 1872.09 192.928C1872.09 199.269 1871.33 207.251 1869.79 216.872C1865.86 239.395 1857.33 259.403 1844.21 276.896C1831.31 294.389 1814.8 307.947 1794.68 317.568C1774.78 327.189 1752.81 332 1728.75 332H1642.49L1683.16 101.744H1769.43ZM1733.67 284.112C1754.89 284.112 1772.49 278.208 1786.48 266.4C1800.48 254.592 1809.22 238.083 1812.72 216.872C1813.82 210.312 1814.36 204.845 1814.36 200.472C1814.36 184.291 1809.44 171.827 1799.6 163.08C1789.76 154.115 1775.77 149.632 1757.62 149.632H1730.72L1707.11 284.112H1733.67ZM2182.24 101.744L2141.56 332H2085.48L2110.08 193.912L2033.98 332H1988.72L1961.16 193.256L1936.89 332H1880.8L1921.48 101.744H1987.73L2024.47 261.152L2116.31 101.744H2182.24ZM2278.66 101.744L2237.99 332H2181.9L2222.57 101.744H2278.66ZM2484.62 332H2428.53L2359.98 189.976L2334.72 332H2278.63L2319.3 101.744H2375.39L2443.94 244.424L2469.2 101.744H2525.29L2484.62 332Z" fill="white"/>
</g>
<defs>
<clipPath id="clip0_560_217">
<rect width="2657" height="434" fill="white"/>
</clipPath>
</defs>
</svg>
